<svg xmlns:mydata="http://www.w3.org/2000/svg" mydata:contrastcolor="11111f" mydata:template="Contrast" mydata:presentation="2.5" mydata:layouttype="undefined" mydata:specialfontid="undefined" mydata:id1="572" mydata:id2="276" mydata:companyname="Neural Nomad" mydata:companytagline="" version="1.1" xmlns="http://www.w3.org/2000/svg" xmlns:xlink="http://www.w3.org/1999/xlink" viewBox="0 45 550 380">
	<g fill="#F66B0E" fill-rule="nonzero" stroke="none" stroke-width="1" stroke-linecap="butt" stroke-linejoin="miter" stroke-miterlimit="10" stroke-dasharray="" stroke-dashoffset="0" font-family="none" font-weight="none" font-size="none" text-anchor="none" style="mix-blend-mode: normal">
		<g data-paper-data="{&quot;isGlobalGroup&quot;:true,&quot;bounds&quot;:{&quot;x&quot;:107.6123398165184,&quot;y&quot;:150.60542517548606,&quot;width&quot;:334.7753203669632,&quot;height&quot;:168.78914964902788}}">
			<g data-paper-data="{&quot;stacked&quot;:true,&quot;isPrimaryText&quot;:true}">
				<path d="M164.52524,152.47322c0,-0.98883 -0.87896,-1.8678 -1.8678,-1.8678h-6.26262c-4.72443,0 -8.5699,3.84547 -8.5699,8.5699v15.60161l-21.86422,-21.86422c-1.53819,-1.42832 -3.62573,-2.30728 -5.82313,-2.30728h-10.65744c-0.98883,0 -1.8678,0.87896 -1.8678,1.8678v2.19741c0,2.19741 0.87896,4.28495 2.30728,5.82313l43.83832,43.83832c1.0987,1.0987 2.63689,1.75793 4.39482,1.75793c3.51586,0 6.37249,-2.85663 6.37249,-6.37249zM107.61234,225.64696c0,0.98883 0.87896,1.8678 1.8678,1.8678h6.26262c4.72443,0 8.5699,-3.84547 8.5699,-8.5699v-15.60161l21.86422,21.86422c1.53819,1.42832 3.62573,2.30728 5.82313,2.30728h10.65744c0.98883,0 1.8678,-0.87896 1.8678,-1.8678v-2.19741c0,-2.19741 -0.87896,-4.28495 -2.30728,-5.82313l-43.83832,-43.83832c-1.0987,-1.0987 -2.63689,-1.75793 -4.39482,-1.75793c-3.51586,0 -6.37249,2.85663 -6.37249,6.37249z" data-paper-data="{&quot;glyphName&quot;:&quot;N&quot;,&quot;glyphIndex&quot;:0,&quot;firstGlyphOfWord&quot;:true,&quot;word&quot;:1,&quot;line&quot;:1,&quot;firstGlyphOfFirstLine&quot;:true}" fill="white">
				</path>
				<path d="M195.61859,150.60543c-15.60161,0 -28.34658,12.74497 -28.34658,28.45645v19.99643c0,15.71148 12.74497,28.45645 28.34658,28.45645h26.47878c0.98883,0 1.8678,-0.87896 1.8678,-1.8678v-6.48236c0,-4.61456 -3.7356,-8.35016 -8.35016,-8.35016h-19.99643c-3.18624,0 -5.93301,-1.0987 -8.24029,-3.40598c-2.30728,-2.30728 -3.40598,-5.05404 -3.40598,-8.35016v-19.99643c0,-3.29611 1.0987,-6.04288 3.40598,-8.35016c2.30728,-2.30728 5.05404,-3.40598 8.24029,-3.40598h19.99643c4.61456,0 8.35016,-3.7356 8.35016,-8.35016v-6.48236c0,-0.98883 -0.87896,-1.8678 -1.8678,-1.8678zM195.61859,170.71172c-4.50469,0 -8.24029,3.62573 -8.24029,8.24029v6.59223c0,0.98883 0.87896,1.8678 1.8678,1.8678h26.36891c4.61456,0 8.35016,-3.7356 8.35016,-8.35016c0,-4.72443 -3.7356,-8.35016 -8.35016,-8.35016zM189.2461,190.70815c-0.98883,0 -1.8678,0.87896 -1.8678,1.8678v6.59223c0,4.61456 3.7356,8.24029 8.24029,8.24029h19.99643c4.61456,0 8.35016,-3.62573 8.35016,-8.24029c0,-4.72443 -3.7356,-8.46003 -8.35016,-8.46003z" data-paper-data="{&quot;glyphName&quot;:&quot;E&quot;,&quot;glyphIndex&quot;:1,&quot;word&quot;:1,&quot;line&quot;:1}" fill="white">
				</path>
				<path d="M275.05494,150.60543c-4.50469,0 -8.35016,3.84547 -8.35016,8.35016v40.21259c0,6.48236 -5.16391,11.64627 -11.64627,11.64627c-6.48236,0 -11.64627,-5.16391 -11.64627,-11.64627v-40.21259c0,-4.50469 -3.84547,-8.35016 -8.35016,-8.35016h-6.48236c-0.98883,0 -1.8678,0.87896 -1.8678,1.8678v46.69495c0,15.71148 12.6351,28.34658 28.34658,28.34658c15.71148,0 28.34658,-12.6351 28.34658,-28.34658v-46.69495c0,-0.98883 -0.87896,-1.8678 -1.8678,-1.8678zM255.05851,150.60543c-4.50469,0 -8.24029,3.7356 -8.24029,8.24029v40.32246c0,4.50469 3.7356,8.24029 8.24029,8.24029c4.50469,0 8.24029,-3.7356 8.24029,-8.24029v-40.32246c0,-4.50469 -3.7356,-8.24029 -8.24029,-8.24029z" data-paper-data="{&quot;glyphName&quot;:&quot;U&quot;,&quot;glyphIndex&quot;:2,&quot;word&quot;:1,&quot;line&quot;:1}" fill="white">
				</path>
				<path d="M314.49843,150.82517c-15.71148,0 -28.34658,12.74497 -28.34658,28.45645v46.36534c0,0.98883 0.87896,1.8678 1.8678,1.8678h6.48236c4.50469,0 8.35016,-3.84547 8.35016,-8.35016v-39.88298c0,-6.48236 5.16391,-11.75614 11.64627,-11.75614c6.48236,0 11.64627,5.27378 11.64627,11.75614c0,6.48236 -5.16391,11.64627 -11.64627,11.64627h-6.37249c-0.98883,0 -1.8678,0.87896 -1.8678,1.8678v6.48236c0,2.08754 0.65922,4.06521 1.97767,5.49352l22.30371,22.19383c0.65922,0.76909 1.8678,0.76909 2.63689,0l4.50469,-4.50469c3.18624,-3.18624 3.29611,-8.5699 0.10987,-11.75614l-7.69093,-7.69093c7.69093,-5.05404 12.74497,-13.84368 12.74497,-23.73202c0,-15.71148 -12.6351,-28.45645 -28.34658,-28.45645zM314.49843,170.93146c-4.50469,0 -8.24029,3.7356 -8.24029,8.35016v6.37249c0,0.98883 0.87896,1.8678 1.8678,1.8678h6.37249c4.61456,0 8.35016,-3.7356 8.35016,-8.24029c0,-4.61456 -3.7356,-8.35016 -8.35016,-8.35016z" data-paper-data="{&quot;glyphName&quot;:&quot;R&quot;,&quot;glyphIndex&quot;:3,&quot;word&quot;:1,&quot;line&quot;:1}" fill="white">
				</path>
				<path d="M374.26797,150.60543c-15.71148,0 -28.45645,12.74497 -28.45645,28.34658v46.69495c0,0.98883 0.87896,1.8678 1.8678,1.8678h6.59223c4.50469,0 8.24029,-3.7356 8.24029,-8.24029v-40.32246c0,-6.15275 4.8343,-11.64627 11.75614,-11.64627c6.26262,0 11.75614,4.8343 11.75614,11.64627v40.32246c0,4.50469 3.7356,8.24029 8.24029,8.24029h6.59223c0.98883,0 1.8678,-0.87896 1.8678,-1.8678v-46.69495c0,-15.60161 -12.74497,-28.34658 -28.45645,-28.34658zM374.26797,170.71172c-4.61456,0 -8.35016,3.7356 -8.35016,8.24029v40.32246c0,4.50469 3.7356,8.24029 8.35016,8.24029c4.61456,0 8.35016,-3.7356 8.35016,-8.24029v-40.32246c0,-4.50469 -3.7356,-8.24029 -8.35016,-8.24029z" data-paper-data="{&quot;glyphName&quot;:&quot;A&quot;,&quot;glyphIndex&quot;:4,&quot;word&quot;:1,&quot;line&quot;:1}" fill="white">
				</path>
				<path d="M407.33898,150.60543c-0.98883,0 -1.8678,0.87896 -1.8678,1.8678v46.47521c0,7.91067 3.18624,15.05225 8.35016,20.21617c5.16391,5.16391 12.30549,8.35016 20.21617,8.35016h6.48236c0.98883,0 1.8678,-0.87896 1.8678,-1.8678v-6.48236c0,-4.50469 -3.84547,-8.35016 -8.35016,-8.35016c-6.48236,0 -11.86601,-5.27378 -11.86601,-11.86601v-39.77311c0,-4.72443 -3.84547,-8.5699 -8.5699,-8.5699z" data-paper-data="{&quot;glyphName&quot;:&quot;L&quot;,&quot;glyphIndex&quot;:5,&quot;lastGlyphOfWord&quot;:true,&quot;word&quot;:1,&quot;line&quot;:1,&quot;lastGlyphOfFirstLine&quot;:true}" fill="white">
				</path>
				<path d="M164.39479,244.52505c0,-0.98657 -0.87695,-1.86352 -1.86352,-1.86352h-6.24826c-4.7136,0 -8.55025,3.83665 -8.55025,8.55025v15.56585l-21.81411,-21.81411c-1.53466,-1.42504 -3.61742,-2.30199 -5.80979,-2.30199h-10.63301c-0.98657,0 -1.86352,0.87695 -1.86352,1.86352v2.19237c0,2.19237 0.87695,4.27513 2.30199,5.80979l43.73784,43.73784c1.09619,1.09619 2.63085,1.7539 4.38475,1.7539c3.5078,0 6.35788,-2.85008 6.35788,-6.35788zM107.61234,317.53106c0,0.98657 0.87695,1.86352 1.86352,1.86352h6.24826c4.7136,0 8.55025,-3.83665 8.55025,-8.55025v-15.56585l21.81411,21.81411c1.53466,1.42504 3.61742,2.30199 5.80979,2.30199h10.63301c0.98657,0 1.86352,-0.87695 1.86352,-1.86352v-2.19237c0,-2.19237 -0.87695,-4.27513 -2.30199,-5.80979l-43.73784,-43.73784c-1.09619,-1.09619 -2.63085,-1.7539 -4.38475,-1.7539c-3.5078,0 -6.35788,2.85008 -6.35788,6.35788z" data-paper-data="{&quot;glyphName&quot;:&quot;N&quot;,&quot;glyphIndex&quot;:6,&quot;firstGlyphOfWord&quot;:true,&quot;word&quot;:2,&quot;line&quot;:2,&quot;firstGlyphOfSecondLine&quot;:true}">
				</path>
				<path d="M195.41687,242.66153c-15.67547,0 -28.28161,12.60614 -28.28161,28.28161v20.16983c0,15.67547 12.60614,28.28161 28.28161,28.28161c15.67547,0 28.28161,-12.60614 28.28161,-28.28161v-20.16983c0,-15.67547 -12.60614,-28.28161 -28.28161,-28.28161zM195.41687,259.32356c6.4675,0 11.61958,5.15208 11.61958,11.61958v20.16983c0,6.4675 -5.15208,11.61958 -11.61958,11.61958c-6.4675,0 -11.61958,-5.15208 -11.61958,-11.61958v-20.16983c0,-6.4675 5.15208,-11.61958 11.61958,-11.61958zM195.41687,262.72174c-4.60398,0 -8.2214,3.72703 -8.2214,8.2214v20.06021c0,4.60398 3.61742,8.33102 8.2214,8.33102c4.60398,0 8.2214,-3.72703 8.2214,-8.2214v-20.16983c0,-4.49436 -3.61742,-8.2214 -8.2214,-8.2214z" data-paper-data="{&quot;glyphName&quot;:&quot;O&quot;,&quot;glyphIndex&quot;:7,&quot;word&quot;:2,&quot;line&quot;:2}">
				</path>
				<path d="M294.84097,242.66153c-7.78292,0 -14.79852,3.17894 -19.95059,8.2214c-5.15208,-5.04246 -12.16767,-8.2214 -19.95059,-8.2214c-15.67547,0 -28.28161,12.60614 -28.28161,28.28161v46.58792c0,0.98657 0.87695,1.86352 1.86352,1.86352h6.4675c4.49436,0 8.33102,-3.83665 8.33102,-8.33102v-40.12042c0,-6.4675 5.15208,-11.61958 11.61958,-11.61958c6.4675,0 11.61958,5.15208 11.61958,11.61958v40.12042c0,4.60398 3.72703,8.33102 8.33102,8.33102c4.60398,0 8.33102,-3.72703 8.33102,-8.33102v-40.12042c0,-6.4675 5.15208,-11.61958 11.61958,-11.61958c6.4675,0 11.61958,5.15208 11.61958,11.61958v40.12042c0,4.49436 3.83665,8.33102 8.33102,8.33102h6.4675c0.98657,0 1.86352,-0.87695 1.86352,-1.86352v-46.58792c0,-15.67547 -12.60614,-28.28161 -28.28161,-28.28161zM254.93979,262.72174c-4.49436,0 -8.2214,3.72703 -8.2214,8.2214v40.23004c0,4.49436 3.72703,8.2214 8.2214,8.2214c4.49436,0 8.2214,-3.72703 8.2214,-8.2214v-40.23004c0,-4.49436 -3.72703,-8.2214 -8.2214,-8.2214zM294.84097,262.72174c-4.49436,0 -8.2214,3.72703 -8.2214,8.2214v40.23004c0,4.49436 3.72703,8.2214 8.2214,8.2214c4.49436,0 8.2214,-3.72703 8.2214,-8.2214v-40.23004c0,-4.49436 -3.72703,-8.2214 -8.2214,-8.2214z" data-paper-data="{&quot;glyphName&quot;:&quot;M&quot;,&quot;glyphIndex&quot;:8,&quot;word&quot;:2,&quot;line&quot;:2}">
				</path>
				<path d="M354.36389,242.66153c-15.67547,0 -28.39123,12.71576 -28.39123,28.28161v46.58792c0,0.98657 0.87695,1.86352 1.86352,1.86352h6.57712c4.49436,0 8.2214,-3.72703 8.2214,-8.2214v-40.23004c0,-6.13864 4.82322,-11.61958 11.72919,-11.61958c6.24826,0 11.72919,4.82322 11.72919,11.61958v40.23004c0,4.49436 3.72703,8.2214 8.2214,8.2214h6.57712c0.98657,0 1.86352,-0.87695 1.86352,-1.86352v-46.58792c0,-15.56585 -12.71576,-28.28161 -28.39123,-28.28161zM354.36389,262.72174c-4.60398,0 -8.33102,3.72703 -8.33102,8.2214v40.23004c0,4.49436 3.72703,8.2214 8.33102,8.2214c4.60398,0 8.33102,-3.72703 8.33102,-8.2214v-40.23004c0,-4.49436 -3.72703,-8.2214 -8.33102,-8.2214z" data-paper-data="{&quot;glyphName&quot;:&quot;A&quot;,&quot;glyphIndex&quot;:9,&quot;word&quot;:2,&quot;line&quot;:2}">
				</path>
				<path d="M393.49775,242.66153c-4.49436,0 -8.00216,3.83665 -8.00216,8.33102v60.07101c0,4.49436 3.5078,8.33102 8.00216,8.33102h20.38907c7.78292,0 14.57928,-2.74047 20.06021,-8.33102c5.59055,-5.48093 8.33102,-12.16767 8.44064,-20.06021v-19.95059c-0.10962,-7.89254 -2.85008,-14.57928 -8.44064,-20.06021c-5.48093,-5.59055 -12.27729,-8.33102 -20.06021,-8.33102zM413.88681,259.32356c6.4675,0 11.83881,5.15208 11.83881,11.72919v19.95059c0,6.57712 -5.37131,11.72919 -11.83881,11.72919h-6.4675c-2.85008,0 -5.26169,-2.30199 -5.26169,-5.26169v-32.88559c0,-2.9597 2.41161,-5.26169 5.26169,-5.26169zM407.41931,262.72174c-0.98657,0 -1.86352,0.76733 -1.86352,1.86352v32.88559c0,1.09619 0.87695,1.86352 1.86352,1.86352h6.4675c4.49436,0 8.33102,-3.61742 8.33102,-8.33102v-19.95059c0,-4.7136 -3.83665,-8.33102 -8.33102,-8.33102z" data-paper-data="{&quot;glyphName&quot;:&quot;D&quot;,&quot;glyphIndex&quot;:10,&quot;lastGlyphOfWord&quot;:true,&quot;word&quot;:2,&quot;line&quot;:2,&quot;lastGlyphOfSecondLine&quot;:true}">
				</path>
			</g>
		</g>
	</g>
</svg>
